<svg width="293" height="54" viewBox="0 0 293 54" fill="none" xmlns="http://www.w3.org/2000/svg">
<path d="M65.66 42V15.4H71.854L82.874 33.488H79.606L90.322 15.4H96.516L96.592 42H89.676L89.6 25.926H90.778L82.76 39.378H79.416L71.17 25.926H72.614V42H65.66ZM112.366 42.342C109.934 42.342 107.806 41.886 105.982 40.974C104.183 40.0367 102.777 38.77 101.764 37.174C100.776 35.5527 100.282 33.716 100.282 31.664C100.282 29.612 100.763 27.788 101.726 26.192C102.714 24.5707 104.069 23.3167 105.792 22.43C107.515 21.518 109.453 21.062 111.606 21.062C113.633 21.062 115.482 21.48 117.154 22.316C118.826 23.1267 120.156 24.33 121.144 25.926C122.132 27.522 122.626 29.46 122.626 31.74C122.626 31.9933 122.613 32.2847 122.588 32.614C122.563 32.9433 122.537 33.2473 122.512 33.526H106.21V29.726H118.674L115.938 30.79C115.963 29.8527 115.786 29.042 115.406 28.358C115.051 27.674 114.545 27.142 113.886 26.762C113.253 26.382 112.505 26.192 111.644 26.192C110.783 26.192 110.023 26.382 109.364 26.762C108.731 27.142 108.237 27.6867 107.882 28.396C107.527 29.08 107.35 29.8907 107.35 30.828V31.93C107.35 32.9433 107.553 33.8173 107.958 34.552C108.389 35.2867 108.997 35.8567 109.782 36.262C110.567 36.642 111.505 36.832 112.594 36.832C113.607 36.832 114.469 36.6927 115.178 36.414C115.913 36.11 116.635 35.654 117.344 35.046L121.144 38.998C120.156 40.0873 118.94 40.9233 117.496 41.506C116.052 42.0633 114.342 42.342 112.366 42.342ZM134.923 42.342C133.048 42.342 131.338 41.9113 129.793 41.05C128.273 40.1633 127.057 38.9347 126.145 37.364C125.233 35.768 124.777 33.868 124.777 31.664C124.777 29.4853 125.233 27.6107 126.145 26.04C127.057 24.444 128.273 23.2153 129.793 22.354C131.338 21.4927 133.048 21.062 134.923 21.062C136.696 21.062 138.191 21.442 139.407 22.202C140.648 22.962 141.585 24.1273 142.219 25.698C142.852 27.2687 143.169 29.2573 143.169 31.664C143.169 34.1213 142.865 36.1353 142.257 37.706C141.649 39.2767 140.737 40.442 139.521 41.202C138.305 41.962 136.772 42.342 134.923 42.342ZM136.443 36.604C137.253 36.604 137.975 36.414 138.609 36.034C139.267 35.654 139.787 35.0967 140.167 34.362C140.547 33.602 140.737 32.7027 140.737 31.664C140.737 30.6253 140.547 29.7513 140.167 29.042C139.787 28.3073 139.267 27.75 138.609 27.37C137.975 26.99 137.253 26.8 136.443 26.8C135.607 26.8 134.859 26.99 134.201 27.37C133.567 27.75 133.061 28.3073 132.681 29.042C132.301 29.7513 132.111 30.6253 132.111 31.664C132.111 32.7027 132.301 33.602 132.681 34.362C133.061 35.0967 133.567 35.654 134.201 36.034C134.859 36.414 135.607 36.604 136.443 36.604ZM140.965 42V38.466L141.003 31.664L140.623 24.862V13.804H147.843V42H140.965ZM159.822 27.066H172.096V32.88H159.822V27.066ZM160.354 42H152.83V15.4H173.692V21.214H160.354V42ZM188.964 42V38.162L188.47 37.212V30.144C188.47 29.004 188.116 28.13 187.406 27.522C186.722 26.8887 185.62 26.572 184.1 26.572C183.112 26.572 182.112 26.7367 181.098 27.066C180.085 27.37 179.224 27.8007 178.514 28.358L176.082 23.456C177.248 22.696 178.641 22.1133 180.262 21.708C181.909 21.2773 183.543 21.062 185.164 21.062C188.508 21.062 191.092 21.8347 192.916 23.38C194.766 24.9 195.69 27.294 195.69 30.562V42H188.964ZM182.884 42.342C181.238 42.342 179.844 42.0633 178.704 41.506C177.564 40.9487 176.69 40.1887 176.082 39.226C175.5 38.2633 175.208 37.1867 175.208 35.996C175.208 34.7293 175.525 33.64 176.158 32.728C176.817 31.7907 177.818 31.0813 179.16 30.6C180.503 30.0933 182.238 29.84 184.366 29.84H189.23V33.602H185.354C184.189 33.602 183.366 33.792 182.884 34.172C182.428 34.552 182.2 35.0587 182.2 35.692C182.2 36.3253 182.441 36.832 182.922 37.212C183.404 37.592 184.062 37.782 184.898 37.782C185.684 37.782 186.393 37.592 187.026 37.212C187.685 36.8067 188.166 36.1987 188.47 35.388L189.458 38.048C189.078 39.4667 188.331 40.5433 187.216 41.278C186.127 41.9873 184.683 42.342 182.884 42.342ZM200.248 42V21.404H207.126V27.408L206.1 25.698C206.708 24.1527 207.696 23 209.064 22.24C210.432 21.4547 212.091 21.062 214.042 21.062V27.56C213.712 27.5093 213.421 27.484 213.168 27.484C212.94 27.4587 212.686 27.446 212.408 27.446C210.938 27.446 209.748 27.8513 208.836 28.662C207.924 29.4473 207.468 30.7393 207.468 32.538V42H200.248ZM243.849 21.062C245.445 21.062 246.864 21.3913 248.105 22.05C249.372 22.6833 250.36 23.6713 251.069 25.014C251.804 26.3567 252.171 28.092 252.171 30.22V42H244.951V31.398C244.951 29.9287 244.672 28.8647 244.115 28.206C243.558 27.522 242.798 27.18 241.835 27.18C241.151 27.18 240.53 27.3447 239.973 27.674C239.416 28.0033 238.985 28.51 238.681 29.194C238.377 29.8527 238.225 30.714 238.225 31.778V42H231.005V31.398C231.005 29.9287 230.726 28.8647 230.169 28.206C229.637 27.522 228.877 27.18 227.889 27.18C227.18 27.18 226.546 27.3447 225.989 27.674C225.457 28.0033 225.026 28.51 224.697 29.194C224.393 29.8527 224.241 30.714 224.241 31.778V42H217.021V21.404H223.899V27.142L222.531 25.508C223.291 24.0387 224.33 22.9367 225.647 22.202C226.964 21.442 228.434 21.062 230.055 21.062C231.904 21.062 233.526 21.5433 234.919 22.506C236.338 23.4433 237.288 24.9127 237.769 26.914L235.413 26.42C236.148 24.748 237.25 23.4433 238.719 22.506C240.214 21.5433 241.924 21.062 243.849 21.062Z" fill="white"/>
<path d="M23.4155 0C20.1026 0.0555223 17.1103 2.02125 15.7566 5.06079L31.9649 9.9314C32.6774 5.70344 30.1244 1.60424 26.016 0.360304C25.2798 0.138215 24.5079 0.0165385 23.7361 0H23.4155ZM15.1392 7.0974C14.4148 11.3372 16.9678 15.4482 21.0882 16.6886C25.2204 17.929 29.6257 15.8971 31.3594 11.9633L15.1392 7.0974ZM46.6652 12.3295C43.661 12.3413 40.4669 13.7825 38.0564 17.1729L23.2374 38.0706C19.2595 43.67 20.9932 49.5294 24.9117 52.2937C28.842 55.0698 34.9572 54.7509 38.9351 49.1514L53.7422 28.2656C57.7201 22.6543 55.9865 16.8067 52.068 14.0306C50.5956 12.991 48.8263 12.3886 46.9621 12.3295H46.6652ZM46.4515 14.3732C46.6058 14.3732 46.7602 14.3732 46.9027 14.385C48.3395 14.4441 49.6931 14.952 50.8331 15.7671C53.8847 17.9172 55.4165 22.2054 51.9849 27.037L44.326 37.8461C40.075 36.712 34.6129 32.8491 32.1312 29.2224L39.8138 18.4015C41.8205 15.5781 44.2073 14.4204 46.4515 14.3732ZM8.43618 23.3749C7.29388 23.3867 6.16702 23.6229 5.11971 24.0837C1.18816 25.7966 -0.857772 30.1675 0.341524 34.2785L15.8635 27.5331C14.308 24.9224 11.4819 23.3394 8.43618 23.3749ZM16.7066 29.4705L1.18697 36.2277C3.37776 39.937 7.9909 41.4255 11.945 39.7126C15.8872 37.9879 17.9296 33.5933 16.7066 29.4705Z" fill="#043B4D"/>
</svg>
